<svg xmlns="http://www.w3.org/2000/svg" version="1.1" xmlns:xlink="http://www.w3.org/1999/xlink" xmlns:svgjs="http://svgjs.dev/svgjs" width="1000" height="623" viewBox="0 0 1000 623"><g transform="matrix(1,0,0,1,-0.6060606060606233,0.2522267206477409)"><svg viewBox="0 0 396 247" data-background-color="#010536" preserveAspectRatio="xMidYMid meet" height="623" width="1000" xmlns="http://www.w3.org/2000/svg" xmlns:xlink="http://www.w3.org/1999/xlink"><g id="tight-bounds" transform="matrix(1,0,0,1,0.2400000000000091,-0.09999999999999432)"><svg viewBox="0 0 395.52 247.2" height="247.2" width="395.52"><g><svg></svg></g><g><svg viewBox="0 0 395.52 247.2" height="247.2" width="395.52"><g transform="matrix(1,0,0,1,110.36680235294115,47.215199999999996)"><svg viewBox="0 0 174.78639529411768 152.7696" height="152.7696" width="174.78639529411768"><g><svg viewBox="0 0 174.78639529411768 152.7696" height="152.7696" width="174.78639529411768"><g><svg viewBox="0 0 174.78639529411768 152.7696" height="152.7696" width="174.78639529411768"><g><svg viewBox="0 0 174.78639529411768 152.7696" height="152.7696" width="174.78639529411768"><g id="textblocktransform"><svg viewBox="0 0 174.78639529411768 152.7696" height="152.7696" width="174.78639529411768" id="textblock"><g><svg viewBox="0 0 174.78639529411768 152.7696" height="152.7696" width="174.78639529411768"><g transform="matrix(1,0,0,1,0,0)"><svg width="174.78639529411768" viewBox="1.5 -33.25 38.900001525878906 34" height="152.7696" data-palette-color="#fbfbf8"><path d="M1.5-32.5L18-32.5 18-29.5 11.5-29.5 11.5 0 8 0 8-29.5 1.5-29.5 1.5-32.5ZM40.4-6.25L40.4-6.25Q40.4 0.75 31.95 0.75 23.5 0.75 23.5-6.25L23.5-6.25 23.5-10.5 27-10.5 27-6.05Q27-4.25 28.25-3.25 29.5-2.25 31.95-2.25 34.4-2.25 35.65-3.25 36.9-4.25 36.9-5.98 36.9-7.7 36.52-8.72 36.15-9.75 35-10.9L35-10.9 26.2-19.5Q24.65-21.05 24.07-22.53 23.5-24 23.5-26.25L23.5-26.25Q23.5-29.6 25.57-31.43 27.65-33.25 31.85-33.25L31.85-33.25Q39.9-33.25 39.9-26.25L39.9-26.25 39.9-22 36.4-22 36.4-26.45Q36.4-28.25 35.22-29.25 34.05-30.25 31.7-30.25 29.35-30.25 28.17-29.25 27-28.25 27-26.5 27-24.75 27.35-23.75 27.7-22.75 28.9-21.65L28.9-21.65 37.85-13.05Q39.3-11.45 39.85-9.98 40.4-8.5 40.4-6.25Z" opacity="1" transform="matrix(1,0,0,1,0,0)" fill="#fbfbf8" class="undefined-text-0" data-fill-palette-color="primary" id="text-0"></path></svg></g></svg></g></svg></g></svg></g></svg></g></svg></g></svg></g><path d="M102.852 41.215L102.852 0 350.052 0 350.052 247.2 102.852 247.2 102.852 205.985 116.629 205.985 116.629 233.423 336.275 233.423 336.275 13.777 116.629 13.777 116.629 41.215Z" fill="#fbfbf8" stroke="transparent" data-fill-palette-color="primary"></path></svg></g><defs></defs></svg><rect width="395.52" height="247.2" fill="none" stroke="none" visibility="hidden"></rect></g></svg></g></svg>